<svg xmlns="http://www.w3.org/2000/svg" viewBox="50 -1600 3430 1650">
  <g transform="scale(1,-1)">
    <path d="M628 -22Q459 -22 336.5 50.5Q214 123 147.5 252.5Q81 382 81 554Q81 727 147.5 857.0Q214 987 336.5 1059.5Q459 1132 628 1132Q827 1132 960.0 1032.5Q1093 933 1125 760L846 708Q827 795 772.5 845.5Q718 896 631 896Q511 896 449.0 801.5Q387 707 387 555Q387 405 449.0 309.5Q511 214 631 214Q718 214 774.0 266.5Q830 319 848 409L1127 358Q1095 181 962.0 79.5Q829 -22 628 -22Z" fill="currentColor"/>
    <path d="M128 0V1118H418V923H430Q461 1026 533.5 1079.5Q606 1133 700 1133Q751 1133 797 1123V855Q777 861 738.5 865.5Q700 870 667 870Q563 870 495.5 805.0Q428 740 428 636V0Z" fill="currentColor" transform="translate(1103,0)"/>
    <path d="M128 0V1118H428V0ZM278 1264Q210 1264 162.0 1309.0Q114 1354 114 1418Q114 1482 162.0 1527.0Q210 1572 278 1572Q346 1572 394.5 1527.0Q443 1482 443 1418Q443 1354 394.5 1309.0Q346 1264 278 1264Z" fill="currentColor" transform="translate(1835,0)"/>
    <path d="M683 1118V889H474V327Q474 223 576 223Q593 223 623.5 227.5Q654 232 671 236L714 11Q664 -4 614.5 -10.0Q565 -16 520 -16Q352 -16 263.0 65.5Q174 147 174 301V889H20V1118H174V1384H474V1118Z" fill="currentColor" transform="translate(2288,0)"/>
    <path d="M342 -19Q269 -19 219.0 30.5Q169 80 169 153Q169 226 219.0 275.5Q269 325 342 325Q415 325 465.0 275.5Q515 226 515 153Q515 80 465.0 30.5Q415 -19 342 -19Z" fill="#7aa2f7" transform="translate(2936,0)"/>
  </g>
</svg>
